<?xml version="1.0" encoding="utf-8"?>
<!-- Generator: Adobe Illustrator 26.0.3, SVG Export Plug-In . SVG Version: 6.00 Build 0)  -->
<svg version="1.1" id="Layer_1" xmlns="http://www.w3.org/2000/svg" xmlns:xlink="http://www.w3.org/1999/xlink" x="0px" y="0px"
	 viewBox="0 0 24 24" style="enable-background:new 0 0 24 24;" xml:space="preserve">
<style type="text/css">
	.st0{fill-rule:evenodd;clip-rule:evenodd;fill:#FBD1A2;}
</style>
<path class="st0" d="M17,24H7v-1.3c1.8-1,2-2.2,2-3.7H1c-0.3,0-0.5-0.1-0.7-0.3C0.1,18.5,0,18.3,0,18V1c0-0.3,0.1-0.5,0.3-0.7
	C0.5,0.1,0.7,0,1,0h22c0.3,0,0.5,0.1,0.7,0.3C23.9,0.5,24,0.7,24,1v17c0,0.3-0.1,0.5-0.3,0.7C23.5,18.9,23.3,19,23,19h-8
	c0,1.4,0.2,2.7,2,3.7V24z M13.2,19h-2.5c0,1,0,2.5-0.9,3.7h4.3C13.2,21.4,13.3,19.9,13.2,19z M22.6,14H1.3v3h21.4V14z M12,14.7
	c0.4,0,0.8,0.4,0.8,0.8c0,0.4-0.4,0.8-0.8,0.8s-0.8-0.4-0.8-0.8C11.2,15.1,11.6,14.7,12,14.7z M1.3,1.6v11h21.4v-11H1.3z"/>
</svg>
